<?xml version="1.0" encoding="UTF-8"?>
<svg width="256" height="256" viewBox="0 0 256 256" xmlns="http://www.w3.org/2000/svg">
  <defs>
    <linearGradient id="blueKit" x1="0" x2="0" y1="0" y2="1">
      <stop offset="0%" stop-color="#42A5F5"/>
      <stop offset="100%" stop-color="#1E88E5"/>
    </linearGradient>
  </defs>
  <!-- Sombra -->
  <ellipse cx="128" cy="228" rx="52" ry="12" fill="#000" opacity="0.18"/>
  <!-- Cuerpo -->
  <circle cx="128" cy="64" r="28" fill="#FFCC80"/>
  <rect x="92" y="92" width="72" height="70" rx="14" fill="url(#blueKit)"/>
  <!-- Brazos (movimiento) -->
  <rect x="70" y="94" width="22" height="56" rx="10" fill="#FFCC80" transform="rotate(-15 81 122)"/>
  <rect x="164" y="100" width="22" height="56" rx="10" fill="#FFCC80" transform="rotate(15 175 128)"/>
  <!-- Piernas (carrera) -->
  <rect x="96" y="162" width="22" height="56" rx="10" fill="#0D47A1" transform="rotate(10 107 190)"/>
  <rect x="138" y="162" width="22" height="56" rx="10" fill="#0D47A1" transform="rotate(-15 149 190)"/>
  <!-- Botas -->
  <rect x="90" y="214" width="36" height="12" rx="6" fill="#263238" transform="rotate(5 108 220)"/>
  <rect x="130" y="214" width="36" height="12" rx="6" fill="#263238" transform="rotate(-8 148 220)"/>
  <!-- Detalles -->
  <circle cx="128" cy="64" r="4" fill="#5D4037"/>
</svg>
